<svg xmlns="http://www.w3.org/2000/svg" viewBox="0 -0.5 22 22" shape-rendering="crispEdges">
<metadata>Made with Pixels to Svg https://codepen.io/shshaw/pen/XbxvNj</metadata>
<path stroke="#3e8287" d="M10 0h2M9 1h1M12 1h1M7 2h2M13 2h2M4 3h3M15 3h3M3 4h1M18 4h1M3 5h1M18 5h1M3 6h1M18 6h1M2 7h1M19 7h1M2 8h1M19 8h1M1 9h1M20 9h1M0 10h1M21 10h1M0 11h1M21 11h1M1 12h1M20 12h1M2 13h1M19 13h1M2 14h1M19 14h1M3 15h1M18 15h1M3 16h1M18 16h1M3 17h1M18 17h1M4 18h3M15 18h3M7 19h2M13 19h2M9 20h1M12 20h1M10 21h2" />
<path stroke="#5fd6df" d="M10 1h2M9 2h1M12 2h1M7 3h2M13 3h2M4 4h3M15 4h3M4 5h1M17 5h1M4 6h1M17 6h1M3 7h1M18 7h1M3 8h1M18 8h1M2 9h1M19 9h1M1 10h1M20 10h1M1 11h1M20 11h1M2 12h1M19 12h1M3 13h1M18 13h1M3 14h1M18 14h1M4 15h1M17 15h1M4 16h1M17 16h1M4 17h3M15 17h3M7 18h2M13 18h2M9 19h1M12 19h1M10 20h2" />
<path stroke="#37acb5" d="M10 2h2M9 3h4M7 4h2M14 4h1M5 5h2M15 5h2M5 6h1M16 6h1M4 7h1M17 7h1M4 8h1M3 9h1M18 9h1M2 10h2M18 10h2M2 11h2M18 11h2M3 12h1M18 12h1M4 13h1M17 13h1M4 14h1M17 14h1M5 15h1M16 15h1M5 16h2M15 16h2M7 17h2M13 17h2M9 18h4M10 19h2" />
<path stroke="#2d2e30" d="M9 4h1M12 4h1M10 5h3M8 6h1M12 6h1M14 6h1M6 7h2M9 7h1M15 7h1M6 8h1M14 8h1M4 9h4M7 11h1M9 11h1M15 11h1M6 12h1M14 12h1M6 13h2M9 13h1M15 13h1M9 15h1" />
<path stroke="#40424a" d="M10 4h1M7 5h2M13 5h2M6 6h1M11 7h1M9 9h1M11 13h1M10 15h3" />
<path stroke="#54504a" d="M11 4h1M15 6h1M14 9h1M14 10h1M11 11h1M10 13h1" />
<path stroke="#4caca6" d="M13 4h1M17 8h1" />
<path stroke="#252527" d="M9 5h1M5 7h1M16 7h1M5 8h1M8 8h1M16 8h1M15 9h3M4 10h3M16 10h1M4 11h3M16 11h2M4 12h2M16 12h1M5 13h1M16 13h1M5 14h2M8 14h1M14 14h1M16 14h1M6 15h3M13 15h3M7 16h4M12 16h1M14 16h1M9 17h4" />
<path stroke="#3d372b" d="M7 6h1M9 8h1M11 8h1M15 8h1M11 9h2M12 10h1M17 10h1M12 11h1M12 12h1M17 12h1M7 14h1M15 14h1M11 16h1M13 16h1" />
<path stroke="#443f32" d="M9 6h1M13 6h1M8 7h1M12 7h1M14 7h1M7 8h1M12 8h1M7 10h1M9 10h1M15 10h1M10 11h1M14 11h1M7 12h1M15 12h1M8 13h1M12 13h1M14 13h1" />
<path stroke="#ffe596" d="M10 6h1M10 7h1M10 8h1M13 8h1M13 9h1M8 10h1M13 10h1M10 12h2M10 14h2" />
<path stroke="#d9ae4a" d="M11 6h1M13 7h1M8 9h1M10 9h1M10 10h2M8 11h1M13 11h1M8 12h2M13 12h1M13 13h1M9 14h1M12 14h2" />
</svg>