<svg xmlns="http://www.w3.org/2000/svg" viewBox="0 -0.5 18 18" shape-rendering="crispEdges">
<metadata>Made with Pixels to Svg https://codepen.io/shshaw/pen/XbxvNj</metadata>
<path stroke="#252527" d="M7 0h4M7 1h1M10 1h1M6 2h2M10 2h2M4 3h2M12 3h2M3 4h1M7 4h4M14 4h1M3 5h1M10 5h2M14 5h1M2 6h1M12 6h1M15 6h1M0 7h3M6 7h1M9 7h2M15 7h3M0 8h1M3 8h4M17 8h1M0 9h1M3 9h1M5 9h2M11 9h2M14 9h1M0 10h1M2 10h1M4 10h2M11 10h3M2 11h1M4 11h2M12 11h2M15 11h1M3 12h1M5 12h2M9 12h1M11 12h2M14 12h1M6 13h6M14 13h1M4 14h2M8 14h2M13 14h1M7 15h1M10 15h2M7 16h1" />
<path stroke="#1f1e21" d="M8 1h2M8 2h2M6 3h2M10 3h2M4 4h2M12 4h2M4 5h1M13 5h1M3 6h1M14 6h1M3 7h1M14 7h1M1 8h2M15 8h2M1 9h2M15 9h2M3 10h1M14 10h1M3 11h1M14 11h1M4 12h1M13 12h1M4 13h2M12 13h2M6 14h2M10 14h2M8 15h2M8 16h2" />
<path stroke="#40424a" d="M8 3h2M6 4h1M11 4h1M5 5h1M12 5h1M7 7h2M8 9h1M17 10h1M9 11h1M3 13h1M9 17h2" />
<path stroke="#2d2e30" d="M6 5h4M4 6h2M13 6h1M4 7h2M11 7h3M11 8h4M4 9h1M7 9h1M9 9h1M13 9h1M17 9h1M1 10h1M6 10h2M9 10h1M15 10h2M6 11h3M11 11h1M7 12h2M12 14h1M6 15h1M10 16h1M7 17h2" />
<path stroke="#9ba3a2" d="M6 6h1M10 6h2M9 8h1M10 10h1M10 11h1" />
<path stroke="#d3dbdb" d="M7 6h3M7 8h2M10 8h1M10 9h1M8 10h1M10 12h1" />
</svg>