<svg xmlns="http://www.w3.org/2000/svg" viewBox="0 -0.5 18 18" shape-rendering="crispEdges">
<metadata>Made with Pixels to Svg https://codepen.io/shshaw/pen/XbxvNj</metadata>
<path stroke="#363638" d="M11 6h5M9 7h2M16 7h1M7 8h2M7 9h1M6 10h2M13 10h3M6 11h1M11 11h3M6 12h1M11 12h1M6 13h1M11 13h1M6 14h1M10 14h2M7 15h1M10 15h1" />
<path stroke="#2d2e30" d="M11 7h5M17 7h1M9 8h2M15 8h2M8 9h1M8 10h1M7 11h1M14 11h1M7 12h1M12 12h1M7 13h1M7 14h1M8 15h1M11 15h1M7 16h2M10 16h1M7 17h1M10 17h1" />
<path stroke="#252527" d="M11 8h4M17 8h1M9 9h9M9 10h3M8 11h3M8 12h3M8 13h2M8 14h2M9 15h1M9 16h1M8 17h2" />
<path stroke="#40424a" d="M12 10h1M16 10h2M10 13h1" />
</svg>