<svg xmlns="http://www.w3.org/2000/svg" viewBox="0 -0.5 18 18" shape-rendering="crispEdges">
<metadata>Made with Pixels to Svg https://codepen.io/shshaw/pen/XbxvNj</metadata>
<path stroke="#363638" d="M7 0h1M7 1h1M10 1h1M6 2h1M10 2h1M6 3h1M10 3h2M6 4h1M11 4h1M5 5h1M11 5h1M2 6h3M11 7h1M2 9h1M0 10h4M3 11h4M5 12h2M6 13h2M7 14h1M11 14h1M7 15h1M10 15h2M10 16h2" />
<path stroke="#252527" d="M8 0h2M8 1h1M8 2h1M8 3h2M8 4h2M7 5h3M7 6h3M5 7h5M0 8h10M3 9h7M5 10h5M7 11h4M8 12h3M8 13h2M8 14h2M9 15h1M9 16h1M8 17h2" />
<path stroke="#2d2e30" d="M10 0h1M9 1h1M7 2h1M9 2h1M7 3h1M7 4h1M10 4h1M6 5h1M10 5h1M5 6h2M10 6h2M0 7h5M10 7h1M10 8h2M10 9h2M10 10h2M2 11h1M11 11h1M6 14h1M8 15h1M7 16h2M7 17h1M10 17h1" />
<path stroke="#40424a" d="M0 9h2M4 10h1M7 12h1M10 13h1M10 14h1" />
</svg>