<svg xmlns="http://www.w3.org/2000/svg" viewBox="0 -0.5 18 18" shape-rendering="crispEdges">
<metadata>Made with Pixels to Svg https://codepen.io/shshaw/pen/XbxvNj</metadata>
<path stroke="#363638" d="M2 6h4M10 6h2M13 6h1M1 9h2M15 9h1M2 10h3M13 10h1M15 10h3M4 11h2M11 11h4M5 12h2M11 12h2M10 13h2M7 14h1M10 14h1M7 15h1M10 15h1" />
<path stroke="#2d2e30" d="M6 6h4M12 6h1M0 7h7M10 7h1M12 7h6M0 10h2M3 11h1M15 11h1M6 13h1M6 14h1M11 14h1M9 15h1M11 15h1M7 16h1M9 16h2M7 17h1M10 17h1" />
<path stroke="#252527" d="M7 7h3M11 7h1M0 8h18M0 9h1M4 9h11M7 10h6M7 11h4M8 12h2M8 13h2M8 14h2M8 15h1M8 16h1M8 17h2" />
<path stroke="#40424a" d="M3 9h1M16 9h2M5 10h2M14 10h1M6 11h1M7 12h1M10 12h1M7 13h1" />
</svg>