<svg xmlns="http://www.w3.org/2000/svg" viewBox="0 -0.5 18 18" shape-rendering="crispEdges">
<metadata>Made with Pixels to Svg https://codepen.io/shshaw/pen/XbxvNj</metadata>
<path stroke="#363638" d="M3 6h4M2 7h1M6 7h3M8 8h2M9 9h2M2 10h2M10 10h1M4 11h3M10 11h2M5 12h2M11 12h1M6 13h1M11 13h1M6 14h2M11 14h1M7 15h1M7 16h1" />
<path stroke="#2d2e30" d="M0 7h2M3 7h3M1 8h2M6 8h2M8 9h1M9 10h1M3 11h1M9 11h1M10 12h1M10 13h1M10 14h1M6 15h1M8 15h1M10 15h1M8 16h1M10 16h1M7 17h1M10 17h1" />
<path stroke="#252527" d="M0 8h1M3 8h3M0 9h8M5 10h4M7 11h2M7 12h3M8 13h2M8 14h2M9 15h1M9 16h1M8 17h2" />
<path stroke="#40424a" d="M0 10h2M4 10h1M7 13h1" />
</svg>