<svg xmlns="http://www.w3.org/2000/svg" viewBox="0 -0.5 22 22" shape-rendering="crispEdges">
<metadata>Made with Pixels to Svg https://codepen.io/shshaw/pen/XbxvNj</metadata>
<path stroke="#252527" d="M10 0h2M8 1h6M6 2h1M15 2h1M3 3h3M16 3h3M3 4h1M18 4h1M3 5h1M6 5h3M14 5h2M18 5h1M2 6h1M4 6h3M8 6h4M15 6h2M19 6h1M4 7h3M1 8h1M3 8h2M12 8h2M15 8h4M20 8h1M1 9h1M3 9h2M7 9h1M13 9h1M15 9h4M20 9h1M0 10h2M5 10h4M15 10h4M20 10h2M1 11h1M3 11h1M20 11h1M3 12h3M13 12h1M3 13h4M4 14h3M11 14h3M15 14h3M4 15h3M11 15h7M3 16h1M5 16h3M14 16h3M18 16h1M3 17h1M6 17h10M18 17h1M10 18h3M16 18h1M6 19h1M15 19h1M8 20h3" />
<path stroke="#1f1e21" d="M7 2h8M6 3h2M14 3h2M4 4h2M16 4h2M4 5h1M17 5h1M3 6h1M18 6h1M2 7h2M18 7h2M2 8h1M19 8h1M2 9h1M19 9h1M2 10h1M19 10h1M2 11h1M19 11h1M2 12h1M19 12h1M2 13h1M19 13h1M2 14h2M18 14h2M3 15h1M18 15h1M4 16h1M17 16h1M4 17h2M16 17h2M6 18h2M14 18h2M7 19h8" />
<path stroke="#2d2e30" d="M8 3h1M13 3h1M8 4h6M9 5h5M7 6h1M12 6h3M17 6h1M7 7h3M15 7h3M5 8h3M9 8h1M11 8h1M5 9h2M3 10h2M9 10h1M12 10h2M0 11h1M4 11h2M15 11h4M21 11h1M1 12h1M8 12h3M15 12h4M20 12h1M1 13h1M7 13h3M15 13h4M20 13h1M14 14h1M7 15h2M10 15h1M8 16h6M3 18h2M8 18h2M13 18h1M17 18h2M11 20h2M10 21h2" />
<path stroke="#40424a" d="M9 3h4M6 4h2M14 4h2M5 5h1M16 5h1M11 9h1M10 10h2M7 12h1M11 12h2M14 12h1M2 15h1M9 15h1M19 15h1M5 18h1M13 20h1" />
<path stroke="#a83184" d="M10 7h2M10 8h1M9 9h2M12 9h1M14 9h1M14 10h1M6 11h3M13 11h2M6 12h1M12 13h3M7 14h2" />
<path stroke="#b551ad" d="M12 7h3M8 8h1M14 8h1M8 9h1M9 11h4M10 13h2M9 14h2" />
</svg>