<svg xmlns="http://www.w3.org/2000/svg" viewBox="0 -0.5 20 20" shape-rendering="crispEdges">
<metadata>Made with Pixels to Svg https://codepen.io/shshaw/pen/XbxvNj</metadata>
<path stroke="#3e8287" d="M8 0h4M7 1h1M12 1h1M7 2h1M12 2h1M5 3h2M13 3h2M4 4h1M15 4h1M3 5h1M16 5h1M3 6h1M16 6h1M1 7h2M17 7h2M0 8h1M19 8h1M0 9h1M19 9h1M0 10h1M19 10h1M0 11h1M19 11h1M1 12h2M17 12h2M3 13h1M16 13h1M3 14h1M16 14h1M4 15h1M15 15h1M5 16h2M13 16h2M7 17h1M12 17h1M7 18h1M12 18h1M8 19h4" />
<path stroke="#5fd6df" d="M8 1h4M8 2h1M11 2h1M7 3h2M11 3h2M5 4h2M13 4h2M4 5h1M15 5h1M4 6h1M15 6h1M3 7h1M16 7h1M1 8h3M16 8h3M1 9h1M18 9h1M1 10h1M18 10h1M1 11h3M16 11h3M3 12h1M16 12h1M4 13h1M15 13h1M4 14h1M15 14h1M5 15h2M13 15h2M7 16h2M11 16h2M8 17h1M11 17h1M8 18h4" />
<path stroke="#37acb5" d="M9 2h2M9 3h2M7 4h2M11 4h2M5 5h2M13 5h2M5 6h1M14 6h1M4 7h1M15 7h1M4 8h1M15 8h1M2 9h2M16 9h2M2 10h2M16 10h2M4 11h1M15 11h1M4 12h1M15 12h1M5 13h1M14 13h1M5 14h2M13 14h2M7 15h2M11 15h2M9 16h2M9 17h2" />
<path stroke="#40424a" d="M9 4h2M7 5h1M12 5h1M6 6h1M13 6h1M8 8h1M10 12h1" />
<path stroke="#252527" d="M8 5h4M11 6h2M13 7h1M7 8h1M10 8h1M4 9h2M7 9h1M4 10h1M6 10h1M12 10h1M15 10h1M5 11h1M13 11h1M5 12h2M14 12h1M6 13h2M13 13h1M7 14h6M9 15h2" />
<path stroke="#2d2e30" d="M7 6h4M5 7h2M5 8h2M12 8h1M14 8h1M15 9h1M5 10h1M8 10h1M14 10h1M7 11h1M7 12h2M12 12h1M9 13h1" />
<path stroke="#c7d1d0" d="M7 7h1M11 7h2M10 9h1M11 11h1M11 12h1" />
<path stroke="#ffffff" d="M8 7h3M8 9h2M11 9h1M11 10h1M9 11h1M11 13h1" />
<path stroke="#404244" d="M14 7h1M13 8h1M12 9h3M10 10h1M8 11h1M10 11h1M9 12h1M8 13h1" />
<path stroke="#51545b" d="M9 8h1M9 10h1" />
<path stroke="#393a3b" d="M11 8h1M6 9h1M7 10h1M13 10h1M6 11h1M12 11h1M14 11h1M13 12h1M10 13h1M12 13h1" />
</svg>