<svg xmlns="http://www.w3.org/2000/svg" viewBox="0 -0.5 26 26" shape-rendering="crispEdges">
<metadata>Made with Pixels to Svg https://codepen.io/shshaw/pen/XbxvNj</metadata>
<path stroke="#252527" d="M12 0h2M11 1h4M9 2h2M12 2h2M15 2h2M7 3h2M11 3h1M14 3h1M17 3h2M4 4h3M19 4h3M4 5h2M20 5h2M4 6h1M14 6h2M21 6h1M3 7h1M6 7h4M12 7h5M22 7h1M3 8h1M7 8h4M19 8h1M22 8h1M2 9h1M4 9h3M9 9h1M19 9h3M23 9h1M2 10h1M5 10h2M17 10h4M23 10h1M1 11h1M3 11h2M6 11h2M11 11h1M16 11h4M21 11h2M24 11h1M0 12h3M5 12h1M7 12h1M9 12h1M11 12h1M20 12h1M23 12h3M0 13h2M7 13h1M11 13h4M16 13h1M24 13h2M1 14h1M6 14h4M11 14h4M24 14h1M2 15h1M5 15h2M14 15h2M18 15h3M23 15h1M2 16h1M4 16h3M8 16h1M20 16h2M7 17h4M20 17h1M5 18h5M16 18h1M19 18h2M4 19h1M6 19h4M16 19h4M21 19h1M4 20h2M7 20h4M12 20h2M17 20h2M20 20h2M9 21h1M11 21h1M14 21h1M19 21h1M7 22h2M17 22h2M9 23h2M15 23h2M11 24h2" />
<path stroke="#2d2e30" d="M11 2h1M14 2h1M9 4h1M11 4h1M14 4h1M16 4h1M9 5h2M15 5h2M7 6h5M16 6h3M10 7h2M17 7h3M5 8h2M11 8h8M20 8h1M7 9h2M16 9h3M7 10h3M14 10h1M16 10h1M2 11h1M8 11h2M14 11h1M23 11h1M14 12h1M16 12h3M2 13h1M5 13h1M18 13h1M20 13h1M23 13h1M2 14h1M18 14h2M23 14h1M7 15h2M7 16h1M12 16h1M14 16h2M17 16h3M3 17h1M5 17h2M11 17h2M17 17h3M22 17h1M10 18h6M17 18h2M22 18h1M10 19h2M14 19h2M15 20h2M4 21h2M16 21h1M20 21h1M11 22h1M14 22h1M11 23h1M14 23h1M13 24h2M12 25h1" />
<path stroke="#211f1e" d="M9 3h2M12 3h2M15 3h2M7 4h2M10 4h1M12 4h2M15 4h1M17 4h2M6 5h1M11 5h1M14 5h1M19 5h1M5 6h2M12 6h2M20 6h1M4 7h1M21 7h1M4 8h1M21 8h1M3 9h1M22 9h1M3 10h2M21 10h2M5 11h1M20 11h1M3 12h2M6 12h1M19 12h1M21 12h2M3 13h2M6 13h1M19 13h1M21 13h2M5 14h1M20 14h1M3 15h2M21 15h2M3 16h1M22 16h1M4 17h1M21 17h1M4 18h1M21 18h1M5 19h1M12 19h2M20 19h1M6 20h1M11 20h1M14 20h1M19 20h1M7 21h2M10 21h1M12 21h2M15 21h1M17 21h2M9 22h2M12 22h2M15 22h2" />
<path stroke="#40424a" d="M7 5h2M12 5h2M17 5h2M19 6h1M5 7h1M20 7h1M11 10h3M3 14h2M10 14h1M21 14h2M16 15h2M10 16h2M23 16h1M3 18h1M6 21h1M21 21h1M12 23h2M13 25h1" />
<path stroke="#d93030" d="M10 9h3M12 11h2M8 12h1M10 12h1M12 12h2M15 12h1M8 13h3M15 13h1M15 14h1M9 15h3M9 16h1M16 16h1M15 17h2" />
<path stroke="#a61b1b" d="M13 9h3M10 10h1M15 10h1M10 11h1M15 11h1M17 13h1M16 14h2M12 15h2M13 16h1M13 17h2" />
</svg>