<svg xmlns="http://www.w3.org/2000/svg" viewBox="0 -0.5 20 20" shape-rendering="crispEdges">
<metadata>Made with Pixels to Svg https://codepen.io/shshaw/pen/XbxvNj</metadata>
<path stroke="#252527" d="M9 0h2M8 1h1M11 1h1M6 2h2M12 2h2M3 3h3M14 3h3M3 4h1M8 4h1M16 4h1M3 5h1M6 5h1M16 5h1M2 6h1M4 6h1M15 6h1M17 6h1M2 7h1M4 7h1M7 7h2M10 7h1M14 7h2M17 7h1M1 8h1M10 8h2M14 8h3M18 8h1M0 9h1M3 9h3M11 9h1M15 9h2M19 9h1M3 10h3M11 10h1M15 10h2M3 11h2M11 11h1M15 11h2M4 12h1M15 12h1M2 13h1M4 13h4M13 13h3M17 13h1M3 14h1M5 14h3M12 14h3M16 14h1M3 15h1M6 15h8M16 15h1M8 16h4M14 16h1M6 17h2M8 18h1" />
<path stroke="#1f1e21" d="M9 1h2M8 2h4M6 3h2M12 3h2M4 4h2M14 4h2M4 5h1M15 5h1M3 6h1M16 6h1M3 7h1M16 7h1M2 8h1M17 8h1M1 9h2M17 9h2M1 10h2M17 10h2M2 11h1M17 11h1M3 12h1M16 12h1M3 13h1M16 13h1M4 14h1M15 14h1M4 15h2M14 15h2M6 16h2M12 16h2M8 17h4M9 18h2" />
<path stroke="#2d2e30" d="M8 3h1M11 3h1M9 4h3M7 5h2M11 5h3M5 6h4M11 6h1M13 6h2M5 7h2M11 7h1M13 7h1M3 8h4M6 9h1M8 9h1M14 9h1M6 10h1M8 10h2M13 10h2M5 11h2M13 11h2M2 12h1M5 12h4M11 12h1M13 12h2M17 12h1M8 14h1M4 16h2M15 16h2M12 17h1M11 18h1M9 19h2" />
<path stroke="#40424a" d="M9 3h2M6 4h2M12 4h2M5 5h1M14 5h1M10 6h1M8 8h1M13 8h1M13 9h1M0 10h1M10 10h1M19 10h1M1 11h1M18 11h1M9 12h2M9 14h3M3 16h1M13 17h1" />
<path stroke="#c9b577" d="M9 5h1M9 6h1M9 7h1M12 7h1M12 8h1M7 9h1M12 9h1M9 11h2M9 13h2" />
<path stroke="#ad8b3b" d="M10 5h1M12 6h1M7 8h1M9 8h1M9 9h2M7 10h1M12 10h1M7 11h2M12 11h1M12 12h1M8 13h1M11 13h2" />
</svg>