<svg xmlns="http://www.w3.org/2000/svg" viewBox="0 -0.5 28 28" shape-rendering="crispEdges">
<metadata>Made with Pixels to Svg https://codepen.io/shshaw/pen/XbxvNj</metadata>
<path stroke="#3e8287" d="M13 0h2M12 1h1M15 1h1M10 2h2M16 2h2M8 3h2M18 3h2M5 4h3M20 4h3M4 5h1M23 5h1M4 6h1M23 6h1M4 7h1M23 7h1M3 8h1M24 8h1M3 9h1M24 9h1M2 10h1M25 10h1M2 11h1M25 11h1M1 12h1M26 12h1M0 13h1M27 13h1M0 14h1M27 14h1M1 15h1M26 15h1M2 16h1M25 16h1M2 17h1M25 17h1M3 18h1M24 18h1M3 19h1M24 19h1M4 20h1M23 20h1M4 21h1M23 21h1M4 22h1M23 22h1M5 23h3M20 23h3M8 24h2M18 24h2M10 25h2M16 25h2M12 26h1M15 26h1M13 27h2" />
<path stroke="#5fd6df" d="M13 1h2M12 2h4M10 3h2M16 3h2M8 4h2M18 4h2M5 5h3M20 5h3M5 6h2M21 6h2M5 7h1M22 7h1M4 8h1M23 8h1M4 9h1M23 9h1M3 10h1M24 10h1M3 11h1M24 11h1M2 12h1M25 12h1M1 13h2M25 13h2M1 14h2M25 14h2M2 15h1M25 15h1M3 16h1M24 16h1M3 17h1M24 17h1M4 18h1M23 18h1M4 19h1M23 19h1M5 20h1M22 20h1M5 21h2M21 21h2M5 22h3M20 22h3M8 23h2M18 23h2M10 24h2M16 24h2M12 25h4M13 26h2" />
<path stroke="#2d2e30" d="M12 3h1M15 3h1M10 5h1M12 5h1M15 5h1M17 5h1M10 6h2M16 6h2M8 7h2M11 7h1M17 7h3M12 8h1M18 8h3M6 9h2M13 9h1M15 9h1M17 9h1M19 9h1M21 9h1M8 10h2M18 10h2M9 11h1M17 11h1M3 12h1M10 12h1M24 12h1M17 13h1M19 13h1M3 14h1M6 14h1M19 14h1M21 14h1M24 14h1M3 15h1M19 15h2M24 15h1M8 16h2M13 17h1M15 17h1M19 17h2M6 18h2M12 18h1M18 18h3M11 19h1M13 19h1M15 19h1M18 19h2M11 20h2M15 20h2M16 21h2M17 22h1M12 23h1M15 23h1M12 24h1M15 24h1" />
<path stroke="#252527" d="M13 3h2M12 4h1M15 4h1M15 7h1M7 8h4M14 8h1M16 8h2M9 9h1M11 9h1M20 9h1M5 10h3M10 10h1M20 10h3M6 11h2M19 11h1M21 11h1M4 12h2M7 12h2M12 12h1M18 12h3M22 12h2M3 13h1M6 13h1M21 13h1M24 13h1M8 14h1M12 14h1M7 15h1M9 15h1M6 16h2M16 16h1M19 16h3M5 17h3M9 17h1M21 17h2M8 18h3M21 18h1M6 19h4M17 19h1M20 19h2M7 20h4M17 20h4M8 21h4M13 21h2M18 21h2M10 22h1M12 22h1M15 22h1" />
<path stroke="#37acb5" d="M10 4h2M13 4h2M16 4h2M8 5h2M11 5h1M13 5h2M16 5h1M18 5h2M7 6h1M12 6h1M15 6h1M20 6h1M6 7h1M13 7h2M21 7h1M5 8h1M22 8h1M5 9h1M22 9h1M4 10h1M23 10h1M4 11h2M22 11h2M6 12h1M21 12h1M4 13h2M7 13h1M20 13h1M22 13h2M4 14h2M7 14h1M20 14h1M22 14h2M6 15h1M21 15h1M4 16h2M22 16h2M4 17h1M23 17h1M5 18h1M22 18h1M5 19h1M22 19h1M6 20h1M13 20h2M21 20h1M7 21h1M12 21h1M15 21h1M20 21h1M8 22h2M11 22h1M13 22h2M16 22h1M18 22h2M10 23h2M13 23h2M16 23h2" />
<path stroke="#40424a" d="M8 6h2M13 6h2M18 6h2M20 7h1M6 8h1M21 8h1M4 15h2M22 15h2M18 16h1M11 17h1M13 24h2" />
<path stroke="#211f1e" d="M7 7h1" />
<path stroke="#4a2f30" d="M10 7h1M12 7h1M11 8h1M12 9h1M14 9h1M16 9h1M18 9h1M17 10h1M8 11h1M10 11h1M15 11h1M9 12h1M15 12h1M15 13h1M18 13h1M8 17h1M16 17h1M18 17h1M13 18h1M12 19h1M14 19h1M16 19h1" />
<path stroke="#432729" d="M16 7h1M13 8h1M15 8h1M8 9h1M10 9h1M18 11h1M20 11h1M17 12h1M8 13h1M10 13h1M12 13h1M13 14h3M17 14h1M8 15h1M10 15h1M12 15h4M15 16h1M11 18h1M10 19h1" />
<path stroke="#ff4545" d="M11 10h3M13 12h2M9 13h1M11 13h1M13 13h2M16 13h1M9 14h3M16 14h1M16 15h1M10 16h3M10 17h1M17 17h1M16 18h2" />
<path stroke="#cf2121" d="M14 10h3M11 11h1M16 11h1M11 12h1M16 12h1M18 14h1M17 15h2M13 16h2M14 17h1M14 18h2" />
<path stroke="#5a4148" d="M12 11h3M11 15h1M17 16h1M12 17h1" />
</svg>