<svg xmlns="http://www.w3.org/2000/svg" viewBox="0 -0.5 24 24" shape-rendering="crispEdges">
<metadata>Made with Pixels to Svg https://codepen.io/shshaw/pen/XbxvNj</metadata>
<path stroke="#3e8287" d="M11 0h2M9 1h2M13 1h2M7 2h2M15 2h2M4 3h3M17 3h3M3 4h1M20 4h1M3 5h1M20 5h1M3 6h1M20 6h1M2 7h1M21 7h1M2 8h1M21 8h1M1 9h1M22 9h1M1 10h1M22 10h1M0 11h1M23 11h1M0 12h1M23 12h1M1 13h1M22 13h1M1 14h1M22 14h1M2 15h1M21 15h1M2 16h1M21 16h1M3 17h1M20 17h1M3 18h1M20 18h1M3 19h1M20 19h1M4 20h3M17 20h3M7 21h2M15 21h2M9 22h2M13 22h2M11 23h2" />
<path stroke="#5fd6df" d="M11 1h2M9 2h6M7 3h1M16 3h1M4 4h3M17 4h3M4 5h1M19 5h1M4 6h1M19 6h1M3 7h1M20 7h1M2 9h1M21 9h1M2 10h1M21 10h1M1 11h2M21 11h2M1 12h2M21 12h2M2 13h1M21 13h1M2 14h1M21 14h1M3 16h1M20 16h1M4 17h1M19 17h1M4 18h1M19 18h1M4 19h3M17 19h3M7 20h1M16 20h1M9 21h6M11 22h2" />
<path stroke="#37acb5" d="M8 3h8M7 4h2M15 4h2M5 5h2M17 5h2M5 6h1M18 6h1M4 7h1M19 7h1M3 8h2M19 8h2M3 9h1M20 9h1M3 10h1M20 10h1M3 11h1M3 12h1M20 12h1M3 13h1M20 13h1M3 14h1M20 14h1M3 15h2M19 15h2M4 16h1M19 16h1M5 17h1M18 17h1M5 18h2M17 18h2M7 19h2M15 19h2M8 20h8" />
<path stroke="#2d2e30" d="M9 4h1M14 4h1M9 5h6M10 6h5M8 7h1M13 7h1M15 7h1M18 7h1M8 8h3M16 8h3M6 9h2M6 10h2M4 11h2M5 12h2M16 12h1M18 12h2M9 13h1M17 13h1M19 13h1M8 14h1M10 14h1M16 14h1M18 14h2M15 15h1M8 16h2M11 16h1M9 17h3M13 17h1M9 19h2M14 19h1" />
<path stroke="#40424a" d="M10 4h4M7 5h2M15 5h2M6 6h1M17 6h1M12 10h1M10 16h1" />
<path stroke="#252527" d="M7 6h3M15 6h2M5 7h3M9 7h1M11 7h1M17 7h1M5 8h3M4 9h2M17 9h1M19 9h1M4 10h2M8 10h1M14 10h1M16 10h1M18 10h2M7 11h1M9 11h1M17 11h1M19 11h1M4 12h1M4 13h3M4 14h4M5 15h3M13 15h1M17 15h1M5 16h3M12 16h7M6 17h3M15 17h3M7 18h10M11 19h3" />
<path stroke="#432e43" d="M10 7h1M12 7h1M16 7h1M13 9h2M16 9h1M18 9h1M17 10h1M6 11h1M8 11h1M16 11h1M18 11h1M14 13h1M12 15h1M14 15h1M16 15h1M18 15h1" />
<path stroke="#4a364b" d="M14 7h1M8 9h1M10 9h1M12 9h1M10 11h1M13 11h2M17 12h1M10 13h2M16 13h1M18 13h1M9 14h1M17 14h1M12 17h1M14 17h1" />
<path stroke="#f747c2" d="M11 8h2M11 9h1M10 10h2M13 10h1M15 10h1M15 11h1M7 12h3M14 12h2M7 13h1M13 14h3M8 15h2" />
<path stroke="#ff6af1" d="M13 8h3M9 9h1M15 9h1M9 10h1M10 12h4M11 14h2M10 15h2" />
<path stroke="#5a4761" d="M11 11h2M8 13h1M12 13h2M15 13h1" />
<path stroke="#53a3bd" d="M20 11h1" />
</svg>