<svg xmlns="http://www.w3.org/2000/svg" viewBox="0 -0.5 24 24" shape-rendering="crispEdges">
<metadata>Made with Pixels to Svg https://codepen.io/shshaw/pen/XbxvNj</metadata>
<path stroke="#3e8287" d="M10 0h4M9 1h1M14 1h1M5 2h4M15 2h4M4 3h1M19 3h1M3 4h1M20 4h1M2 5h1M21 5h1M2 6h1M21 6h1M2 7h1M21 7h1M2 8h1M21 8h1M1 9h1M22 9h1M0 10h1M23 10h1M0 11h1M23 11h1M0 12h1M23 12h1M0 13h1M23 13h1M1 14h1M22 14h1M2 15h1M21 15h1M2 16h1M21 16h1M2 17h1M21 17h1M2 18h1M21 18h1M3 19h1M20 19h1M4 20h1M19 20h1M5 21h4M15 21h4M9 22h1M14 22h1M10 23h4" />
<path stroke="#5fd6df" d="M10 1h4M9 2h1M14 2h1M5 3h4M15 3h4M4 4h1M19 4h1M3 5h1M20 5h1M3 6h1M20 6h1M3 7h1M20 7h1M3 8h1M20 8h1M2 9h1M21 9h1M1 10h1M22 10h1M1 11h1M22 11h1M1 12h1M22 12h1M1 13h1M22 13h1M2 14h1M21 14h1M3 15h1M20 15h1M3 16h1M20 16h1M3 17h1M20 17h1M3 18h1M20 18h1M4 19h1M19 19h1M5 20h4M15 20h4M9 21h1M14 21h1M10 22h4" />
<path stroke="#37acb5" d="M10 2h4M9 3h1M14 3h1M5 4h4M15 4h4M4 5h2M18 5h2M4 6h1M19 6h1M4 7h1M19 7h1M4 8h1M19 8h1M3 9h1M20 9h1M2 10h1M21 10h1M2 11h1M21 11h1M2 12h1M21 12h1M2 13h1M21 13h1M3 14h1M20 14h1M4 15h1M19 15h1M4 16h1M19 16h1M4 17h1M19 17h1M4 18h2M18 18h2M5 19h4M15 19h4M9 20h1M14 20h1M10 21h4" />
<path stroke="#2d2e30" d="M10 3h1M13 3h1M9 4h6M6 5h3M15 5h1M5 6h2M18 6h1M10 7h3M11 8h1M19 10h2M4 11h1M8 11h3M18 11h3M4 12h3M13 12h6M5 13h3M16 13h3M11 14h3M11 15h4M10 16h1M16 16h2M9 17h2M16 17h2M10 18h3" />
<path stroke="#40424a" d="M11 3h2" />
<path stroke="#252527" d="M9 5h6M16 5h2M7 6h8M5 7h5M18 7h1M5 8h6M18 8h1M4 9h9M17 9h3M3 10h9M17 10h2M3 11h1M5 11h3M14 11h1M16 11h2M3 12h1M7 12h3M19 12h2M3 13h2M12 13h4M19 13h2M4 14h3M14 14h6M5 15h1M15 15h4M5 16h1M11 16h5M18 16h1M5 17h2M11 17h5M18 17h1M6 18h4M13 18h5M9 19h6M10 20h4" />
<path stroke="#2a5f31" d="M15 6h3M13 7h2M17 7h1M12 8h1M17 8h1M13 9h1M16 9h1M12 10h1M14 10h1M16 10h1M11 11h1M13 11h1M15 11h1M10 12h1M12 12h1M8 13h2M11 13h1M7 14h1M10 14h1M6 15h1M8 15h1M10 15h1M6 16h1M9 16h1M7 17h2" />
<path stroke="#25c133" d="M15 7h1M13 8h2M16 8h1M15 10h1M11 12h1M8 14h1M9 15h1M7 16h1" />
<path stroke="#25aa31" d="M16 7h1M15 8h1M14 9h2M13 10h1M12 11h1M10 13h1M9 14h1M7 15h1M8 16h1" />
</svg>