<svg xmlns="http://www.w3.org/2000/svg" viewBox="0 -0.5 22 22" shape-rendering="crispEdges">
<metadata>Made with Pixels to Svg https://codepen.io/shshaw/pen/XbxvNj</metadata>
<path stroke="#252527" d="M9 0h4M8 1h1M13 1h1M4 2h4M14 2h4M3 3h1M18 3h1M2 4h1M8 4h6M15 4h2M19 4h1M2 5h1M6 5h8M15 5h2M19 5h1M2 6h1M4 6h5M11 6h3M16 6h2M19 6h1M2 7h1M4 7h5M16 7h2M19 7h1M1 8h1M3 8h7M16 8h3M20 8h1M0 9h1M2 9h9M12 9h1M14 9h4M21 9h1M0 10h1M2 10h1M4 10h3M9 10h1M15 10h2M0 11h1M2 11h1M6 11h3M18 11h2M0 12h1M2 12h2M8 12h1M12 12h2M18 12h2M1 13h1M3 13h5M13 13h6M2 14h1M4 14h2M14 14h4M19 14h1M2 15h1M4 15h3M10 15h5M17 15h1M19 15h1M2 16h1M4 16h4M10 16h5M17 16h1M19 16h1M2 17h1M4 17h5M12 17h6M19 17h1M8 18h6M18 18h1M7 19h1M9 19h4M17 19h1M8 20h1M13 20h1M9 21h2" />
<path stroke="#211f1e" d="M9 1h4M8 2h1M13 2h1M4 3h4M14 3h4M3 4h1M18 4h1M3 5h1M18 5h1M3 6h1M18 6h1M3 7h1M18 7h1M2 8h1M19 8h1M1 9h1M20 9h1M1 10h1M20 10h1M1 11h1M20 11h1M1 12h1M20 12h1M2 13h1M19 13h1M3 14h1M18 14h1M3 15h1M18 15h1M3 16h1M18 16h1M3 17h1M18 17h1M4 18h4M14 18h4M8 19h1M13 19h1M9 20h4" />
<path stroke="#2d2e30" d="M9 2h1M12 2h1M8 3h6M5 4h3M14 4h1M4 5h2M14 5h1M17 5h1M12 7h1M18 9h2M3 10h1M7 10h2M17 10h3M21 10h1M3 11h3M13 11h1M16 11h2M21 11h1M4 12h4M16 12h2M9 13h4M20 13h1M9 14h5M8 15h2M15 15h2M8 16h2M15 16h2M9 17h3M3 18h1M5 19h2M15 19h2M11 21h2" />
<path stroke="#40424a" d="M10 2h2M4 4h1M17 4h1M9 7h1M10 8h1M15 8h1M12 11h1M11 12h1M14 12h1M21 12h1M8 14h1M4 19h1M14 19h1" />
<path stroke="#219438" d="M9 6h2M15 6h1M14 7h1M13 8h1M11 9h1M11 10h1M13 10h1M9 11h1M15 11h1M9 12h2M15 12h1M6 14h1M7 15h1" />
<path stroke="#22a82d" d="M14 6h1M10 7h2M13 7h1M15 7h1M11 8h2M14 8h1M13 9h1M10 10h1M12 10h1M14 10h1M10 11h2M14 11h1M8 13h1M7 14h1" />
</svg>