<?xml version="1.0" encoding="utf-8"?>
<!-- Generator: Adobe Illustrator 26.4.1, SVG Export Plug-In . SVG Version: 6.00 Build 0)  -->
<svg version="1.1" id="Calque_1" shape-rendering="crispEdges"
	 xmlns="http://www.w3.org/2000/svg" xmlns:xlink="http://www.w3.org/1999/xlink" x="0px" y="0px" viewBox="0 0 440 219"
	 style="enable-background:new 0 0 440 219;" xml:space="preserve">
<style type="text/css">
	.st0{fill:#353639;}
	.st1{fill:#404042;}
	.st2{fill:#55555D;}
	.st3{fill:#2C2C2E;}
	.st4{fill:#4B4E57;}
</style>
<g>
	<path d="M0,0.5h2 M438,0.5h2 M0,1.5h2 M438,1.5h2 M435,6.5h3 M435,7.5h3 M435,8.5h3 M435,9.5h3 M435,10.5h3 M435,11.5h3 M2,14.5h2
		 M2,15.5h2 M2,16.5h2 M2,17.5h2 M2,18.5h2 M2,19.5h2 M2,20.5h2 M2,21.5h10 M2,22.5h10 M6,23.5h8 M6,24.5h8 M2,25.5h2 M12,25.5h4
		 M225,25.5h1 M234,25.5h4 M2,26.5h2 M12,26.5h4 M225,26.5h1 M234,26.5h4 M2,27.5h2 M16,27.5h4 M223,27.5h2 M230,27.5h4 M2,28.5h2
		 M16,28.5h4 M223,28.5h2 M230,28.5h4 M2,29.5h2 M20,29.5h2 M221,29.5h9 M2,30.5h2 M20,30.5h2 M221,30.5h9 M2,31.5h2 M219,31.5h7
		 M2,32.5h2 M219,32.5h7 M2,33.5h2 M215,33.5h10 M2,34.5h2 M215,34.5h10 M2,35.5h2 M213,35.5h8 M2,36.5h2 M213,36.5h8 M2,37.5h2
		 M209,37.5h8 M2,38.5h2 M209,38.5h8 M205,39.5h4 M211,39.5h4 M205,40.5h4 M211,40.5h4 M199,41.5h6 M211,41.5h4 M199,42.5h6
		 M211,42.5h4 M195,43.5h4 M209,43.5h4 M195,44.5h4 M209,44.5h4 M207,45.5h4 M207,46.5h4 M207,47.5h2 M207,48.5h2 M435,53.5h3
		 M435,54.5h3 M327,55.5h3 M435,55.5h3 M327,56.5h3 M435,56.5h3 M2,57.5h2 M327,57.5h1 M435,57.5h3 M2,58.5h2 M327,58.5h1 M435,58.5
		h3 M2,59.5h2 M323,59.5h5 M340,59.5h4 M435,59.5h3 M2,60.5h2 M323,60.5h5 M340,60.5h4 M435,60.5h3 M2,61.5h2 M323,61.5h4 M336,61.5
		h6 M435,61.5h3 M2,62.5h2 M323,62.5h4 M336,62.5h6 M435,62.5h3 M2,63.5h2 M319,63.5h4 M330,63.5h8 M435,63.5h3 M2,64.5h2 M319,64.5
		h4 M330,64.5h8 M435,64.5h3 M2,65.5h2 M313,65.5h6 M325,65.5h11 M435,65.5h3 M2,66.5h2 M313,66.5h6 M325,66.5h11 M435,66.5h3
		 M2,67.5h2 M309,67.5h23 M435,67.5h3 M2,68.5h2 M309,68.5h23 M435,68.5h3 M2,69.5h2 M305,69.5h10 M435,69.5h3 M2,70.5h2 M305,70.5
		h10 M435,70.5h3 M2,71.5h2 M301,71.5h4 M435,71.5h3 M2,72.5h2 M301,72.5h4 M435,72.5h3 M2,73.5h2 M297,73.5h4 M435,73.5h3 M2,74.5
		h2 M297,74.5h4 M435,74.5h3 M2,75.5h2 M110,75.5h15 M292,75.5h5 M435,75.5h3 M2,76.5h2 M110,76.5h15 M292,76.5h5 M435,76.5h3
		 M2,77.5h2 M106,77.5h8 M290,77.5h2 M435,77.5h3 M2,78.5h2 M106,78.5h8 M290,78.5h2 M435,78.5h3 M2,79.5h2 M102,79.5h12 M288,79.5
		h2 M435,79.5h3 M2,80.5h2 M102,80.5h12 M288,80.5h2 M435,80.5h3 M2,81.5h2 M98,81.5h6 M112,81.5h4 M435,81.5h3 M2,82.5h2 M98,82.5
		h6 M112,82.5h4 M435,82.5h3 M2,83.5h2 M96,83.5h4 M116,83.5h5 M2,84.5h2 M96,84.5h4 M116,84.5h5 M2,85.5h2 M119,85.5h6 M2,86.5h2
		 M119,86.5h6 M2,87.5h2 M125,87.5h4 M2,88.5h2 M12,88.5h11 M2,89.5h2 M12,89.5h11 M2,90.5h2 M12,90.5h11 M2,91.5h2 M10,91.5h8
		 M2,92.5h2 M10,92.5h8 M2,93.5h14 M2,94.5h14 M2,95.5h2 M8,95.5h6 M2,96.5h2 M8,96.5h6 M6,97.5h4 M6,98.5h4 M2,99.5h6 M2,100.5h6
		 M435,133.5h3 M435,134.5h3 M435,135.5h3 M435,136.5h3 M435,137.5h3 M435,138.5h3 M435,139.5h3 M435,140.5h3 M188,179.5h3
		 M419,179.5h6 M435,179.5h3 M188,180.5h3 M419,180.5h6 M435,180.5h3 M191,181.5h4 M423,181.5h4 M435,181.5h3 M191,182.5h4
		 M423,182.5h4 M435,182.5h3 M195,183.5h10 M411,183.5h20 M435,183.5h3 M195,184.5h10 M411,184.5h20 M435,184.5h3 M199,185.5h28
		 M231,185.5h14 M409,185.5h4 M421,185.5h10 M435,185.5h3 M199,186.5h28 M231,186.5h14 M409,186.5h4 M421,186.5h10 M435,186.5h3
		 M205,187.5h30 M425,187.5h8 M205,188.5h30 M425,188.5h8 M211,189.5h12 M431,189.5h9 M211,190.5h12 M431,190.5h9 M207,191.5h4
		 M433,191.5h5 M207,192.5h4 M433,192.5h5 M203,193.5h4 M203,194.5h4 M197,195.5h6 M435,195.5h3 M197,196.5h6 M435,196.5h3
		 M191,197.5h6 M435,197.5h3 M191,198.5h6 M435,198.5h3 M435,199.5h3 M435,200.5h3 M435,201.5h3 M435,202.5h3 M435,203.5h3
		 M435,204.5h3 M435,205.5h3 M435,206.5h3 M435,207.5h3 M435,208.5h3 M0,215.5h2 M438,215.5h2 M0,216.5h2 M438,216.5h2 M0,217.5h4
		 M106,217.5h70 M211,217.5h16 M262,217.5h70 M435,217.5h5 M0,218.5h4 M106,218.5h70 M211,218.5h16 M262,218.5h70 M435,218.5h5"/>
	<path class="st0" d="M440,219h-5v-2h3v-2h2V219z M332,219h-70v-2h70V219z M227,219h-16v-2h16V219z M176,219h-70v-2h70V219z M4,219
		H0v-4h2v2h2V219z M438,209h-3v-14h3V209z M197,199h-6v-2h6V199z M203,197h-6v-2h6V197z M207,195h-4v-2h4V195z M438,193h-5v-2h-2v-2
		h-6v-2h-4v-2h-8v2h-4v-2h2v-2h12v-2h-4v-2h6v2h2v2h4v4h2v2h7v2h-2V193z M211,193h-4v-2h4V193z M223,191h-12v-2h-6v-2h-6v-2h-4v-2
		h-4v-2h-3v-2h3v2h4v2h10v2h22v2h4v-2h14v2h-10v2h-12V191z M438,187h-3v-8h3V187z M438,141h-3v-8h3V141z M8,101H2v-2h4v-2h2v-2H4v2
		H2V57h2v36h6v-2h2v-3h11v3h-5v2h-2v2h-2v2h-4v2H8V101z M129,88h-4v-1h-6v-2h-3v-2h-4v-2h-8v2h-4v2h-4v-2h2v-2h4v-2h4v-2h4v-2h15v2
		h-11v4h2v2h5v2h4v2h4V88z M438,83h-3V53h3V83z M290,81h-2v-2h2V81z M292,79h-2v-2h2V79z M297,77h-5v-2h5V77z M301,75h-4v-2h4V75z
		 M305,73h-4v-2h4V73z M315,71h-10v-2h4v-2h4v-2h6v2h6v-2h5v-2h6v-2h4v-2h4v2h-2v2h-4v2h-2v2h-4v2h-17V71z M323,65h-4v-2h4V65z
		 M327,63h-4v-4h4v-4h3v2h-2v4h-1V63z M209,49h-2v-4h2v-2h2v-4h-2v-2h4v-2h2v-2h4v-2h2v-2h2v-2h2v2h5v2h-4v2h-1v2h-4v2h-4v2h-2v4h-2
		v2h-2v2h-2V49z M199,45h-4v-2h4V45z M205,43h-6v-2h6V43z M209,41h-4v-2h4V41z M4,39H2V25h2V39z M22,31h-2v-2h-4v-2h-4v-2H6v-2H2v-9
		h2v7h8v2h2v2h2v2h4v2h2V31z M234,29h-4v-2h4V29z M238,27h-4v-2h4V27z M226,27h-1v-2h1V27z M438,12h-3V6h3V12z M440,2h-2V0h2V2z
		 M2,2H0V0h2V2z"/>
</g>
<g>
	<path d="M2,0.5h2 M435,0.5h3 M2,1.5h2 M435,1.5h3 M0,2.5h2 M4,2.5h431 M438,2.5h2 M0,3.5h2 M4,3.5h431 M438,3.5h2 M0,4.5h2 M4,4.5
		h431 M438,4.5h2 M0,5.5h2 M4,5.5h431 M438,5.5h2 M0,6.5h2 M4,6.5h431 M438,6.5h2 M0,7.5h2 M4,7.5h431 M438,7.5h2 M0,8.5h2 M4,8.5
		h431 M438,8.5h2 M0,9.5h2 M4,9.5h431 M438,9.5h2 M0,10.5h2 M4,10.5h431 M438,10.5h2 M0,11.5h2 M4,11.5h431 M438,11.5h2 M0,12.5h2
		 M4,12.5h431 M438,12.5h2 M0,13.5h2 M4,13.5h431 M438,13.5h2 M0,14.5h2 M4,14.5h431 M438,14.5h2 M0,15.5h2 M4,15.5h431 M438,15.5h2
		 M0,16.5h2 M4,16.5h431 M438,16.5h2 M0,17.5h2 M4,17.5h431 M438,17.5h2 M0,18.5h2 M4,18.5h431 M438,18.5h2 M0,19.5h2 M4,19.5h431
		 M438,19.5h2 M0,20.5h2 M4,20.5h431 M438,20.5h2 M12,21.5h423 M438,21.5h2 M12,22.5h423 M438,22.5h2 M0,23.5h4 M14,23.5h421
		 M438,23.5h2 M0,24.5h4 M14,24.5h421 M438,24.5h2 M0,25.5h2 M4,25.5h4 M16,25.5h209 M226,25.5h8 M238,25.5h197 M438,25.5h2 M0,26.5
		h2 M4,26.5h4 M16,26.5h209 M226,26.5h8 M238,26.5h197 M438,26.5h2 M0,27.5h2 M4,27.5h10 M20,27.5h203 M226,27.5h4 M234,27.5h201
		 M438,27.5h2 M0,28.5h2 M4,28.5h10 M20,28.5h203 M226,28.5h4 M234,28.5h201 M438,28.5h2 M0,29.5h2 M4,29.5h14 M22,29.5h199
		 M232,29.5h203 M438,29.5h2 M0,30.5h2 M4,30.5h14 M22,30.5h199 M232,30.5h203 M438,30.5h2 M0,31.5h2 M4,31.5h215 M230,31.5h205
		 M438,31.5h2 M0,32.5h2 M4,32.5h215 M230,32.5h205 M438,32.5h2 M0,33.5h2 M4,33.5h211 M226,33.5h209 M438,33.5h2 M0,34.5h2 M4,34.5
		h211 M226,34.5h209 M438,34.5h2 M0,35.5h2 M4,35.5h209 M221,35.5h214 M438,35.5h2 M0,36.5h2 M4,36.5h209 M221,36.5h214 M438,36.5h2
		 M0,37.5h2 M4,37.5h205 M219,37.5h216 M438,37.5h2 M0,38.5h2 M4,38.5h205 M219,38.5h216 M438,38.5h2 M0,39.5h2 M4,39.5h201
		 M217,39.5h218 M438,39.5h2 M0,40.5h2 M4,40.5h201 M217,40.5h218 M438,40.5h2 M0,41.5h2 M4,41.5h195 M209,41.5h2 M215,41.5h220
		 M438,41.5h2 M0,42.5h2 M4,42.5h195 M209,42.5h2 M215,42.5h220 M438,42.5h2 M0,43.5h2 M4,43.5h191 M201,43.5h8 M215,43.5h220
		 M438,43.5h2 M0,44.5h2 M4,44.5h191 M201,44.5h8 M215,44.5h220 M438,44.5h2 M0,45.5h2 M4,45.5h203 M211,45.5h224 M438,45.5h2
		 M0,46.5h2 M4,46.5h203 M211,46.5h224 M438,46.5h2 M0,47.5h2 M4,47.5h203 M209,47.5h226 M438,47.5h2 M0,48.5h2 M4,48.5h203
		 M209,48.5h226 M438,48.5h2 M0,49.5h2 M4,49.5h431 M438,49.5h2 M0,50.5h2 M4,50.5h431 M438,50.5h2 M0,51.5h2 M4,51.5h431 M438,51.5
		h2 M0,52.5h2 M4,52.5h431 M438,52.5h2 M0,53.5h2 M4,53.5h431 M438,53.5h2 M0,54.5h2 M4,54.5h431 M438,54.5h2 M0,55.5h2 M4,55.5h323
		 M330,55.5h105 M438,55.5h2 M0,56.5h2 M4,56.5h323 M330,56.5h105 M438,56.5h2 M0,57.5h2 M4,57.5h323 M330,57.5h105 M438,57.5h2
		 M0,58.5h2 M4,58.5h323 M330,58.5h105 M438,58.5h2 M0,59.5h2 M4,59.5h319 M328,59.5h12 M344,59.5h91 M438,59.5h2 M0,60.5h2 M4,60.5
		h319 M328,60.5h12 M344,60.5h91 M438,60.5h2 M0,61.5h2 M4,61.5h319 M328,61.5h8 M342,61.5h93 M438,61.5h2 M0,62.5h2 M4,62.5h319
		 M328,62.5h8 M342,62.5h93 M438,62.5h2 M0,63.5h2 M4,63.5h315 M327,63.5h3 M340,63.5h95 M438,63.5h2 M0,64.5h2 M4,64.5h315
		 M327,64.5h3 M340,64.5h95 M438,64.5h2 M0,65.5h2 M4,65.5h309 M336,65.5h99 M438,65.5h2 M0,66.5h2 M4,66.5h309 M336,66.5h99
		 M438,66.5h2 M0,67.5h2 M4,67.5h305 M332,67.5h103 M438,67.5h2 M0,68.5h2 M4,68.5h305 M332,68.5h103 M438,68.5h2 M0,69.5h2 M4,69.5
		h301 M319,69.5h6 M327,69.5h1 M332,69.5h103 M438,69.5h2 M0,70.5h2 M4,70.5h301 M319,70.5h6 M327,70.5h1 M332,70.5h103 M438,70.5h2
		 M0,71.5h2 M4,71.5h297 M311,71.5h124 M438,71.5h2 M0,72.5h2 M4,72.5h297 M311,72.5h124 M438,72.5h2 M0,73.5h2 M4,73.5h293
		 M303,73.5h132 M438,73.5h2 M0,74.5h2 M4,74.5h293 M303,74.5h132 M438,74.5h2 M0,75.5h2 M4,75.5h106 M125,75.5h167 M297,75.5h138
		 M438,75.5h2 M0,76.5h2 M4,76.5h106 M125,76.5h167 M297,76.5h138 M438,76.5h2 M0,77.5h2 M4,77.5h102 M117,77.5h173 M295,77.5h140
		 M438,77.5h2 M0,78.5h2 M4,78.5h102 M117,78.5h173 M295,78.5h140 M438,78.5h2 M0,79.5h2 M4,79.5h98 M114,79.5h174 M290,79.5h145
		 M438,79.5h2 M0,80.5h2 M4,80.5h98 M114,80.5h174 M290,80.5h145 M438,80.5h2 M0,81.5h2 M4,81.5h94 M108,81.5h4 M116,81.5h319
		 M438,81.5h2 M0,82.5h2 M4,82.5h94 M108,82.5h4 M116,82.5h319 M438,82.5h2 M0,83.5h2 M4,83.5h92 M102,83.5h12 M121,83.5h314
		 M438,83.5h2 M0,84.5h2 M4,84.5h92 M102,84.5h12 M121,84.5h314 M438,84.5h2 M0,85.5h2 M4,85.5h115 M125,85.5h310 M438,85.5h2
		 M0,86.5h2 M4,86.5h115 M125,86.5h310 M438,86.5h2 M0,87.5h2 M4,87.5h119 M129,87.5h306 M438,87.5h2 M0,88.5h2 M4,88.5h8 M23,88.5
		h412 M438,88.5h2 M0,89.5h2 M4,89.5h8 M23,89.5h412 M438,89.5h2 M0,90.5h2 M4,90.5h8 M23,90.5h412 M438,90.5h2 M0,91.5h2 M4,91.5h6
		 M22,91.5h413 M438,91.5h2 M0,92.5h2 M4,92.5h6 M22,92.5h413 M438,92.5h2 M0,93.5h2 M16,93.5h419 M438,93.5h2 M0,94.5h2 M16,94.5
		h419 M438,94.5h2 M0,95.5h2 M16,95.5h419 M438,95.5h2 M0,96.5h2 M16,96.5h419 M438,96.5h2 M0,97.5h2 M10,97.5h425 M438,97.5h2
		 M0,98.5h2 M10,98.5h425 M438,98.5h2 M10,99.5h425 M438,99.5h2 M10,100.5h425 M438,100.5h2 M0,101.5h4 M8,101.5h427 M438,101.5h2
		 M0,102.5h4 M8,102.5h427 M438,102.5h2 M0,103.5h2 M4,103.5h431 M438,103.5h2 M0,104.5h2 M4,104.5h431 M438,104.5h2 M0,105.5h2
		 M4,105.5h431 M438,105.5h2 M0,106.5h2 M4,106.5h431 M438,106.5h2 M0,107.5h2 M4,107.5h431 M438,107.5h2 M0,108.5h2 M4,108.5h431
		 M438,108.5h2 M0,109.5h2 M4,109.5h431 M438,109.5h2 M0,110.5h2 M4,110.5h431 M438,110.5h2 M0,111.5h2 M4,111.5h431 M438,111.5h2
		 M0,112.5h2 M4,112.5h431 M438,112.5h2 M0,113.5h2 M4,113.5h431 M438,113.5h2 M0,114.5h2 M4,114.5h431 M438,114.5h2 M0,115.5h2
		 M4,115.5h431 M438,115.5h2 M0,116.5h2 M4,116.5h431 M438,116.5h2 M0,117.5h2 M4,117.5h431 M438,117.5h2 M0,118.5h2 M4,118.5h431
		 M438,118.5h2 M0,119.5h2 M4,119.5h431 M438,119.5h2 M0,120.5h2 M4,120.5h431 M438,120.5h2 M0,121.5h2 M4,121.5h431 M438,121.5h2
		 M0,122.5h2 M4,122.5h431 M438,122.5h2 M0,123.5h2 M4,123.5h431 M438,123.5h2 M0,124.5h2 M4,124.5h431 M438,124.5h2 M0,125.5h2
		 M4,125.5h431 M438,125.5h2 M0,126.5h2 M4,126.5h431 M438,126.5h2 M0,127.5h2 M4,127.5h431 M438,127.5h2 M0,128.5h2 M4,128.5h431
		 M438,128.5h2 M0,129.5h2 M4,129.5h431 M438,129.5h2 M0,130.5h2 M4,130.5h431 M438,130.5h2 M0,131.5h2 M4,131.5h431 M438,131.5h2
		 M0,132.5h2 M4,132.5h431 M438,132.5h2 M0,133.5h2 M4,133.5h431 M438,133.5h2 M0,134.5h2 M4,134.5h431 M438,134.5h2 M0,135.5h2
		 M4,135.5h431 M438,135.5h2 M0,136.5h2 M4,136.5h431 M438,136.5h2 M0,137.5h2 M4,137.5h431 M438,137.5h2 M0,138.5h2 M4,138.5h431
		 M438,138.5h2 M0,139.5h2 M4,139.5h431 M438,139.5h2 M0,140.5h2 M4,140.5h431 M438,140.5h2 M0,141.5h2 M4,141.5h431 M438,141.5h2
		 M0,142.5h2 M4,142.5h431 M438,142.5h2 M0,143.5h2 M4,143.5h431 M438,143.5h2 M0,144.5h2 M4,144.5h431 M438,144.5h2 M0,145.5h2
		 M4,145.5h431 M438,145.5h2 M0,146.5h2 M4,146.5h431 M438,146.5h2 M0,147.5h2 M4,147.5h431 M438,147.5h2 M0,148.5h2 M4,148.5h431
		 M438,148.5h2 M0,149.5h2 M4,149.5h431 M438,149.5h2 M0,150.5h2 M4,150.5h431 M438,150.5h2 M0,151.5h2 M4,151.5h431 M438,151.5h2
		 M0,152.5h2 M4,152.5h431 M438,152.5h2 M0,153.5h2 M4,153.5h431 M438,153.5h2 M0,154.5h2 M4,154.5h431 M438,154.5h2 M0,155.5h2
		 M4,155.5h431 M438,155.5h2 M0,156.5h2 M4,156.5h431 M438,156.5h2 M0,157.5h2 M4,157.5h431 M438,157.5h2 M0,158.5h2 M4,158.5h431
		 M438,158.5h2 M0,159.5h2 M4,159.5h431 M438,159.5h2 M0,160.5h2 M4,160.5h431 M438,160.5h2 M0,161.5h2 M4,161.5h431 M438,161.5h2
		 M0,162.5h2 M4,162.5h431 M438,162.5h2 M0,163.5h2 M4,163.5h431 M438,163.5h2 M0,164.5h2 M4,164.5h431 M438,164.5h2 M0,165.5h2
		 M4,165.5h431 M438,165.5h2 M0,166.5h2 M4,166.5h431 M438,166.5h2 M0,167.5h2 M4,167.5h431 M438,167.5h2 M0,168.5h2 M4,168.5h431
		 M438,168.5h2 M0,169.5h2 M4,169.5h431 M438,169.5h2 M0,170.5h2 M4,170.5h431 M438,170.5h2 M0,171.5h2 M4,171.5h431 M438,171.5h2
		 M0,172.5h2 M4,172.5h431 M438,172.5h2 M0,173.5h2 M4,173.5h431 M438,173.5h2 M0,174.5h2 M4,174.5h431 M438,174.5h2 M0,175.5h2
		 M4,175.5h431 M438,175.5h2 M0,176.5h2 M4,176.5h431 M438,176.5h2 M0,177.5h2 M4,177.5h431 M438,177.5h2 M0,178.5h2 M4,178.5h431
		 M438,178.5h2 M0,179.5h2 M4,179.5h184 M191,179.5h228 M425,179.5h10 M438,179.5h2 M0,180.5h2 M4,180.5h184 M191,180.5h228
		 M425,180.5h10 M438,180.5h2 M0,181.5h2 M4,181.5h185 M195,181.5h226 M427,181.5h8 M438,181.5h2 M0,182.5h2 M4,182.5h185
		 M195,182.5h226 M427,182.5h8 M438,182.5h2 M0,183.5h2 M4,183.5h191 M205,183.5h206 M431,183.5h4 M438,183.5h2 M0,184.5h2 M4,184.5
		h191 M205,184.5h206 M431,184.5h4 M438,184.5h2 M0,185.5h2 M4,185.5h193 M227,185.5h4 M245,185.5h164 M417,185.5h4 M438,185.5h2
		 M0,186.5h2 M4,186.5h193 M227,186.5h4 M245,186.5h164 M417,186.5h4 M438,186.5h2 M0,187.5h2 M4,187.5h199 M239,187.5h186
		 M438,187.5h2 M0,188.5h2 M4,188.5h199 M239,188.5h186 M438,188.5h2 M0,189.5h2 M4,189.5h201 M227,189.5h200 M0,190.5h2 M4,190.5
		h201 M227,190.5h200 M0,191.5h2 M4,191.5h203 M216,191.5h215 M438,191.5h2 M0,192.5h2 M4,192.5h203 M216,192.5h215 M438,192.5h2
		 M0,193.5h2 M4,193.5h199 M207,193.5h2 M211,193.5h229 M0,194.5h2 M4,194.5h199 M207,194.5h2 M211,194.5h229 M0,195.5h2 M4,195.5
		h193 M207,195.5h228 M438,195.5h2 M0,196.5h2 M4,196.5h193 M207,196.5h228 M438,196.5h2 M0,197.5h2 M4,197.5h187 M199,197.5h236
		 M438,197.5h2 M0,198.5h2 M4,198.5h187 M199,198.5h236 M438,198.5h2 M0,199.5h2 M4,199.5h431 M438,199.5h2 M0,200.5h2 M4,200.5h431
		 M438,200.5h2 M0,201.5h2 M4,201.5h431 M438,201.5h2 M0,202.5h2 M4,202.5h431 M438,202.5h2 M0,203.5h2 M4,203.5h431 M438,203.5h2
		 M0,204.5h2 M4,204.5h431 M438,204.5h2 M0,205.5h2 M4,205.5h431 M438,205.5h2 M0,206.5h2 M4,206.5h431 M438,206.5h2 M0,207.5h2
		 M4,207.5h431 M438,207.5h2 M0,208.5h2 M4,208.5h431 M438,208.5h2 M0,209.5h2 M4,209.5h431 M438,209.5h2 M0,210.5h2 M4,210.5h431
		 M438,210.5h2 M0,211.5h2 M4,211.5h431 M438,211.5h2 M0,212.5h2 M4,212.5h431 M438,212.5h2 M0,213.5h2 M4,213.5h431 M438,213.5h2
		 M0,214.5h2 M4,214.5h431 M438,214.5h2 M4,215.5h431 M4,216.5h431"/>
	<path class="st1" d="M435,217H4V103H2v112H0V101h4v2h4v-2h2v-4h6v-4h6v-2h1v-3H12v3h-2v2H4V25H2v74H0V23h4v2h4v2h6v2h4v2h4v-2h-2
		v-2h-4v-2h-2v-2h-2v-2H4V2H2V0h2v2h431v183h-4v-2h-4v-2h-2v-2h-6v2h2v2h-10v2h-2v2h8v-2h4v2h4v2h2v2h4v2h7v-2h2v24h-2v-20h-3V217z
		 M191,199h8v-2h8v-4h-4v2h-6v2h-6V199z M209,195h2v-2h5v-2h11v-2h12v-2h6v-2h-14v2h-4v-2h-22v-2h-10v-2h-4v-2h-3v2h1v2h6v2h2v2h6v2
		h2v2h2v2h2V195z M123,88h6v-1h-4v-2h-4v-2h-5v-2h-2v-2h3v-2h8v-2h-15v2h-4v2h-4v2h-4v2h-2v2h6v-2h6v-2h4v2h2v2h5v2h4V88z M288,81h2
		v-2h-2V81z M290,79h5v-2h2v-2h-5v2h-2V79z M297,75h6v-2h8v-2h8v-2h6v2h2v-2h1v2h4v-4h4v-2h4v-2h2v-2h2v-2h-4v2h-4v2h-6v2h-3v-2h1
		v-4h2v-4h-3v4h-4v4h-4v2h-6v2h-4v2h-4v2h-4v2h-4V75z M207,49h2v-2h2v-2h4v-4h2v-2h2v-2h2v-2h5v-2h4v-2h2v-2h2v-2h-4v2h-4v-4h-1v2
		h-2v2h-2v2h-2v2h-4v2h-2v2h-4v2h-4v2h-6v2h-4v2h6v-2h8v2h-2V49z M234,27h4v-2h-4V27z M440,189h-2V2h-3V0h3v2h2V189z M211,43h-2v-2
		h2V43z M2,21H0V2h2V21z"/>
</g>
<g>
	<path d="M2,2.5h2 M435,2.5h3 M2,3.5h2 M435,3.5h3 M2,4.5h2 M435,4.5h3 M2,5.5h2 M435,5.5h3 M2,6.5h2 M2,7.5h2 M2,8.5h2 M2,9.5h2
		 M2,10.5h2 M2,11.5h2 M2,12.5h2 M435,12.5h3 M2,13.5h2 M435,13.5h3 M435,14.5h3 M435,15.5h3 M435,16.5h3 M435,17.5h3 M435,18.5h3
		 M435,19.5h3 M435,20.5h3 M435,21.5h3 M435,22.5h3 M435,23.5h3 M435,24.5h3 M435,25.5h3 M435,26.5h3 M435,27.5h3 M435,28.5h3
		 M435,29.5h3 M435,30.5h3 M435,31.5h3 M435,32.5h3 M435,33.5h3 M435,34.5h3 M435,35.5h3 M435,36.5h3 M435,37.5h3 M435,38.5h3
		 M2,39.5h2 M435,39.5h3 M2,40.5h2 M435,40.5h3 M2,41.5h2 M435,41.5h3 M2,42.5h2 M435,42.5h3 M2,43.5h2 M435,43.5h3 M2,44.5h2
		 M435,44.5h3 M2,45.5h2 M435,45.5h3 M2,46.5h2 M435,46.5h3 M2,47.5h2 M435,47.5h3 M2,48.5h2 M435,48.5h3 M2,49.5h2 M435,49.5h3
		 M2,50.5h2 M435,50.5h3 M2,51.5h2 M435,51.5h3 M2,52.5h2 M435,52.5h3 M2,53.5h2 M2,54.5h2 M2,55.5h2 M2,56.5h2 M323,63.5h4
		 M323,64.5h4 M319,65.5h6 M319,66.5h6 M435,83.5h3 M435,84.5h3 M435,85.5h3 M435,86.5h3 M435,87.5h3 M435,88.5h3 M435,89.5h3
		 M435,90.5h3 M435,91.5h3 M435,92.5h3 M435,93.5h3 M435,94.5h3 M4,95.5h4 M435,95.5h3 M4,96.5h4 M435,96.5h3 M2,97.5h4 M435,97.5h3
		 M2,98.5h4 M435,98.5h3 M435,99.5h3 M435,100.5h3 M435,101.5h3 M435,102.5h3 M2,103.5h2 M435,103.5h3 M2,104.5h2 M435,104.5h3
		 M2,105.5h2 M435,105.5h3 M2,106.5h2 M435,106.5h3 M2,107.5h2 M435,107.5h3 M2,108.5h2 M435,108.5h3 M2,109.5h2 M435,109.5h3
		 M2,110.5h2 M435,110.5h3 M2,111.5h2 M435,111.5h3 M2,112.5h2 M435,112.5h3 M2,113.5h2 M435,113.5h3 M2,114.5h2 M435,114.5h3
		 M2,115.5h2 M435,115.5h3 M2,116.5h2 M435,116.5h3 M2,117.5h2 M435,117.5h3 M2,118.5h2 M435,118.5h3 M2,119.5h2 M435,119.5h3
		 M2,120.5h2 M435,120.5h3 M2,121.5h2 M435,121.5h3 M2,122.5h2 M435,122.5h3 M2,123.5h2 M435,123.5h3 M2,124.5h2 M435,124.5h3
		 M2,125.5h2 M435,125.5h3 M2,126.5h2 M435,126.5h3 M2,127.5h2 M435,127.5h3 M2,128.5h2 M435,128.5h3 M2,129.5h2 M435,129.5h3
		 M2,130.5h2 M435,130.5h3 M2,131.5h2 M435,131.5h3 M2,132.5h2 M435,132.5h3 M2,133.5h2 M2,134.5h2 M2,135.5h2 M2,136.5h2 M2,137.5
		h2 M2,138.5h2 M2,139.5h2 M2,140.5h2 M2,141.5h2 M435,141.5h3 M2,142.5h2 M435,142.5h3 M2,143.5h2 M435,143.5h3 M2,144.5h2
		 M435,144.5h3 M2,145.5h2 M435,145.5h3 M2,146.5h2 M435,146.5h3 M2,147.5h2 M435,147.5h3 M2,148.5h2 M435,148.5h3 M2,149.5h2
		 M435,149.5h3 M2,150.5h2 M435,150.5h3 M2,151.5h2 M435,151.5h3 M2,152.5h2 M435,152.5h3 M2,153.5h2 M435,153.5h3 M2,154.5h2
		 M435,154.5h3 M2,155.5h2 M435,155.5h3 M2,156.5h2 M435,156.5h3 M2,157.5h2 M435,157.5h3 M2,158.5h2 M435,158.5h3 M2,159.5h2
		 M435,159.5h3 M2,160.5h2 M435,160.5h3 M2,161.5h2 M435,161.5h3 M2,162.5h2 M435,162.5h3 M2,163.5h2 M435,163.5h3 M2,164.5h2
		 M435,164.5h3 M2,165.5h2 M435,165.5h3 M2,166.5h2 M435,166.5h3 M2,167.5h2 M435,167.5h3 M2,168.5h2 M435,168.5h3 M2,169.5h2
		 M435,169.5h3 M2,170.5h2 M435,170.5h3 M2,171.5h2 M435,171.5h3 M2,172.5h2 M435,172.5h3 M2,173.5h2 M435,173.5h3 M2,174.5h2
		 M435,174.5h3 M2,175.5h2 M435,175.5h3 M2,176.5h2 M435,176.5h3 M2,177.5h2 M435,177.5h3 M2,178.5h2 M435,178.5h3 M2,179.5h2
		 M2,180.5h2 M2,181.5h2 M2,182.5h2 M2,183.5h2 M2,184.5h2 M2,185.5h2 M431,185.5h4 M2,186.5h2 M431,186.5h4 M2,187.5h2 M433,187.5
		h5 M2,188.5h2 M433,188.5h5 M2,189.5h2 M2,190.5h2 M2,191.5h2 M2,192.5h2 M2,193.5h2 M2,194.5h2 M2,195.5h2 M2,196.5h2 M2,197.5h2
		 M2,198.5h2 M2,199.5h2 M2,200.5h2 M2,201.5h2 M2,202.5h2 M2,203.5h2 M2,204.5h2 M2,205.5h2 M2,206.5h2 M2,207.5h2 M2,208.5h2
		 M2,209.5h2 M435,209.5h3 M2,210.5h2 M435,210.5h3 M2,211.5h2 M435,211.5h3 M2,212.5h2 M435,212.5h3 M2,213.5h2 M435,213.5h3
		 M2,214.5h2 M435,214.5h3 M2,215.5h2 M435,215.5h3 M2,216.5h2 M435,216.5h3 M4,217.5h102 M176,217.5h35 M227,217.5h35 M332,217.5
		h103 M4,218.5h102 M176,218.5h35 M227,218.5h35 M332,218.5h103"/>
	<path class="st3" d="M435,219H332v-2h103V219z M262,219h-35v-2h35V219z M211,219h-35v-2h35V219z M106,219H4v-2H2V103h2v114h102V219
		z M438,217h-3v-8h3V217z M438,189h-5v-2h-2v-2h4v2h3V189z M438,179h-3v-38h3V179z M438,133h-3V83h3V133z M6,99H2v-2h2v-2h4v2H6V99z
		 M325,67h-6v-2h4v-2h4v2h-2V67z M4,57H2V39h2V57z M438,53h-3V12h3V53z M4,14H2V2h2V14z M438,6h-3V2h3V6z"/>
</g>
<g>
	<path d="M4,23.5h2 M4,24.5h2 M8,25.5h4 M8,26.5h4 M14,27.5h2 M225,27.5h1 M14,28.5h2 M225,28.5h1 M18,29.5h2 M230,29.5h2 M18,30.5
		h2 M230,30.5h2 M226,31.5h4 M226,32.5h4 M225,33.5h1 M225,34.5h1 M217,37.5h2 M217,38.5h2 M209,39.5h2 M215,39.5h2 M209,40.5h2
		 M215,40.5h2 M205,41.5h4 M205,42.5h4 M199,43.5h2 M213,43.5h2 M199,44.5h2 M213,44.5h2 M328,57.5h2 M328,58.5h2 M327,61.5h1
		 M327,62.5h1 M338,63.5h2 M338,64.5h2 M315,69.5h4 M325,69.5h2 M328,69.5h4 M315,70.5h4 M325,70.5h2 M328,70.5h4 M305,71.5h6
		 M305,72.5h6 M301,73.5h2 M301,74.5h2 M114,77.5h3 M292,77.5h3 M114,78.5h3 M292,78.5h3 M104,81.5h4 M104,82.5h4 M100,83.5h2
		 M114,83.5h2 M100,84.5h2 M114,84.5h2 M123,87.5h2 M18,91.5h4 M18,92.5h4 M14,95.5h2 M14,96.5h2 M8,99.5h2 M8,100.5h2 M4,101.5h4
		 M4,102.5h4 M189,181.5h2 M421,181.5h2 M189,182.5h2 M421,182.5h2 M197,185.5h2 M413,185.5h4 M197,186.5h2 M413,186.5h4 M203,187.5
		h2 M235,187.5h4 M203,188.5h2 M235,188.5h4 M205,189.5h6 M223,189.5h4 M427,189.5h4 M205,190.5h6 M223,190.5h4 M427,190.5h4
		 M211,191.5h5 M431,191.5h2 M211,192.5h5 M431,192.5h2 M209,193.5h2 M209,194.5h2 M203,195.5h4 M203,196.5h4 M197,197.5h2
		 M197,198.5h2"/>
	<path class="st4" d="M199,199h-2v-2h2V199z M207,197h-4v-2h4V197z M211,195h-2v-2h2V195z M433,193h-2v-2h-4v-2h4v2h2V193z M216,193
		h-5v-2h-6v-2h-2v-2h2v2h6v2h5V193z M227,191h-4v-2h4V191z M239,189h-4v-2h4V189z M417,187h-4v-2h4V187z M199,187h-2v-2h2V187z
		 M423,183h-2v-2h2V183z M191,183h-2v-2h2V183z M8,103H4v-2h4V103z M10,101H8v-2h2V101z M16,97h-2v-2h2V97z M22,93h-4v-2h4V93z
		 M125,88h-2v-1h2V88z M116,85h-2v-2h2V85z M102,85h-2v-2h2V85z M108,83h-4v-2h4V83z M295,79h-3v-2h3V79z M117,79h-3v-2h3V79z
		 M303,75h-2v-2h2V75z M311,73h-6v-2h6V73z M332,71h-4v-2h4V71z M327,71h-2v-2h2V71z M319,71h-4v-2h4V71z M340,65h-2v-2h2V65z
		 M328,63h-1v-2h1V63z M330,59h-2v-2h2V59z M215,45h-2v-2h2V45z M201,45h-2v-2h2V45z M209,43h-4v-2h4V43z M217,41h-2v-2h2V41z
		 M211,41h-2v-2h2V41z M219,39h-2v-2h2V39z M226,35h-1v-2h1V35z M230,33h-4v-2h4V33z M232,31h-2v-2h2V31z M20,31h-2v-2h2V31z
		 M226,29h-1v-2h1V29z M16,29h-2v-2h2V29z M12,27H8v-2h4V27z M6,25H4v-2h2V25z"/>
</g>
</svg>
