<svg xmlns="http://www.w3.org/2000/svg" viewBox="0 -0.5 22 22" shape-rendering="crispEdges">
<metadata>Made with Pixels to Svg https://codepen.io/shshaw/pen/XbxvNj</metadata>
<path stroke="#252527" d="M10 0h2M13 2h1M3 3h2M10 3h2M13 3h2M17 3h2M3 4h1M10 4h1M13 4h1M18 4h1M5 5h5M16 5h1M3 6h4M13 6h6M3 7h2M12 7h3M2 8h3M11 8h3M2 9h1M7 9h2M0 10h1M11 10h3M19 10h1M21 10h1M0 11h1M12 11h3M17 11h3M21 11h1M2 12h2M8 12h2M12 12h1M17 12h2M2 13h3M8 13h4M17 13h3M3 14h4M9 14h4M16 14h2M6 15h1M6 16h2M14 16h4M3 17h1M7 17h2M13 17h4M18 17h1M3 18h2M6 18h4M12 18h4M17 18h2M8 19h2M10 21h2" />
<path stroke="#211f1e" d="M8 1h6M6 2h2M14 2h2M5 3h1M12 3h1M16 3h1M4 4h1M11 4h2M17 4h1M3 5h1M10 5h3M18 5h1M2 6h1M7 6h6M19 6h1M2 7h1M5 7h7M19 7h1M1 8h1M5 8h3M20 8h1M1 9h1M5 9h2M9 9h8M20 9h1M1 10h1M5 10h2M9 10h2M14 10h3M20 10h1M1 11h1M5 11h2M9 11h3M15 11h2M20 11h1M1 12h1M6 12h2M10 12h2M15 12h2M20 12h1M1 13h1M6 13h2M14 13h3M20 13h1M2 14h1M7 14h2M13 14h3M19 14h1M2 15h1M7 15h8M19 15h1M3 16h1M8 16h6M18 16h1M4 17h1M9 17h4M17 17h1M5 18h1M16 18h1M6 19h2M14 19h2M8 20h6" />
<path stroke="#2d2e30" d="M8 2h1M7 3h3M5 4h5M14 4h3M13 5h3M15 7h4M8 8h3M14 8h6M3 9h2M17 9h3M2 10h3M7 10h2M17 10h2M2 11h3M7 11h2M4 12h2M13 12h2M19 12h1M5 13h1M12 13h2M18 14h1M3 15h3M15 15h4M4 16h2M5 17h2M10 18h2M10 19h4" />
<path stroke="#40424a" d="M9 2h4M6 3h1M15 3h1M4 5h1M17 5h1" />
</svg>