<svg xmlns="http://www.w3.org/2000/svg" viewBox="0 -0.5 18 18" shape-rendering="crispEdges">
<metadata>Made with Pixels to Svg https://codepen.io/shshaw/pen/XbxvNj</metadata>
<path stroke="#363638" d="M7 0h1M6 1h1M6 2h1M10 2h2M10 3h1M6 4h1M10 4h1M6 5h1M11 5h1M6 6h1M11 6h1M5 7h2M11 7h1M5 8h3M11 8h1M6 9h2M10 9h2M6 10h1M10 10h3M6 11h1M11 11h1M6 12h1M11 12h1M7 13h1M11 13h1M11 14h1M7 15h2M10 15h1M7 16h2M7 17h1" />
<path stroke="#252527" d="M8 0h2M8 1h1M8 2h1M8 3h2M8 4h2M8 5h2M8 6h2M9 7h1M9 8h1M9 9h1M8 10h2M9 11h2M8 12h3M8 13h2M8 14h2M9 15h1M9 16h1M8 17h2" />
<path stroke="#2d2e30" d="M10 0h1M7 1h1M9 1h2M7 2h1M9 2h1M6 3h2M7 4h1M7 5h1M10 5h1M7 6h1M10 6h1M8 7h1M10 7h1M8 8h1M10 8h1M5 9h1M8 9h1M7 10h1M7 11h2M12 11h1M7 12h1M6 13h1M6 14h2M6 15h1M11 15h1M10 16h2M10 17h1" />
<path stroke="#40424a" d="M7 7h1M10 13h1M10 14h1" />
</svg>