<svg xmlns="http://www.w3.org/2000/svg" viewBox="0 -0.5 18 18" shape-rendering="crispEdges">
<metadata>Made with Pixels to Svg https://codepen.io/shshaw/pen/XbxvNj</metadata>
<path stroke="#2d2e30" d="M7 0h1M7 1h2M10 1h1M8 2h1M10 2h1M10 3h1M10 4h1M6 5h1M11 5h1M6 6h2M11 6h2M7 7h1M13 7h5M7 8h1M7 9h1M7 10h1M14 11h2M12 12h1M11 14h1M6 15h1M9 15h1M9 16h2M10 17h1" />
<path stroke="#252527" d="M8 0h2M9 1h1M9 2h1M8 3h2M8 4h2M8 5h3M8 6h3M8 7h5M8 8h10M8 9h7M8 10h5M7 11h5M7 12h3M8 13h2M8 14h2M8 15h1M8 16h1M8 17h2" />
<path stroke="#363638" d="M10 0h1M6 2h2M6 3h2M11 3h1M6 4h2M11 4h1M7 5h1M12 5h1M13 6h2M6 9h1M15 9h1M6 10h1M15 10h3M6 11h1M12 11h2M6 12h1M11 12h1M6 13h1M10 13h2M6 14h1M10 14h1M7 15h1M10 15h1M7 16h1M7 17h1" />
<path stroke="#40424a" d="M16 9h2M13 10h2M10 12h1M7 13h1M7 14h1" />
</svg>