<svg xmlns="http://www.w3.org/2000/svg" viewBox="0 -0.5 18 18" shape-rendering="crispEdges">
<metadata>Made with Pixels to Svg https://codepen.io/shshaw/pen/XbxvNj</metadata>
<path stroke="#2d2e30" d="M7 0h1M8 1h1M10 1h1M8 2h1M10 2h1M7 3h1M10 3h1M7 4h1M10 4h1M7 5h1M11 5h1M5 6h3M11 6h2M0 7h5M13 7h5M3 11h1M5 12h1M6 14h1M11 14h1M6 15h1M9 15h1M9 16h2M7 17h1M10 17h1" />
<path stroke="#252527" d="M8 0h2M9 1h1M9 2h1M8 3h2M8 4h2M8 5h3M8 6h3M5 7h8M0 8h18M0 9h1M4 9h11M7 10h6M7 11h4M8 12h2M8 13h2M8 14h2M8 15h1M8 16h1M8 17h2" />
<path stroke="#363638" d="M10 0h1M7 1h1M6 2h2M6 3h1M11 3h1M6 4h1M11 4h1M5 5h2M12 5h1M2 6h3M13 6h3M1 9h1M15 9h1M0 10h6M13 10h1M15 10h3M4 11h3M11 11h4M6 12h1M11 12h2M6 13h2M11 13h1M7 14h1M10 14h1M7 15h1M10 15h1M7 16h1" />
<path stroke="#40424a" d="M2 9h2M16 9h2M6 10h1M14 10h1M7 12h1M10 12h1M10 13h1" />
</svg>