<svg xmlns="http://www.w3.org/2000/svg" viewBox="0 -0.5 18 18" shape-rendering="crispEdges">
<metadata>Made with Pixels to Svg https://codepen.io/shshaw/pen/XbxvNj</metadata>
<path stroke="#363638" d="M5 5h2M11 5h2M2 6h1M4 6h2M8 6h3M14 6h4M1 9h2M16 9h2M0 10h6M8 10h2M12 10h6M3 11h7M12 11h3" />
<path stroke="#2d2e30" d="M3 6h1M6 6h2M11 6h3M0 7h6M8 7h3M13 7h5M0 11h3M10 11h2M7 12h4" />
<path stroke="#252527" d="M6 7h2M11 7h2M0 8h18M0 9h1M4 9h11M7 10h1" />
<path stroke="#40424a" d="M3 9h1M15 9h1M6 10h1M10 10h2" />
</svg>