<svg xmlns="http://www.w3.org/2000/svg" viewBox="0 -0.5 12 15" shape-rendering="crispEdges">
<metadata>Made with Pixels to Svg https://codepen.io/shshaw/pen/XbxvNj</metadata>
<path stroke="#a35f12" d="M7 0h1M0 4h1M6 4h1M11 6h1M0 8h1M6 9h1M11 10h1M10 12h1M4 14h1M7 14h1" />
<path stroke="#c97616" d="M6 1h2M5 2h2M2 3h3M7 3h1M0 5h1M2 5h1M0 6h1M10 6h1M0 7h1M5 7h1M9 7h1M11 7h1M4 8h1M6 8h1M11 8h1M2 9h1M5 9h1M11 9h1M1 10h1M9 10h1M3 11h1M8 11h1M10 11h1M2 12h1M4 12h3M9 12h1M3 13h1M8 13h1M5 14h2" />
<path stroke="#f0c435" d="M7 2h1M5 3h2M1 4h5M1 5h1M1 6h1M4 6h6M1 7h1M4 7h1M10 7h1M1 8h1M5 8h1M10 8h1M1 9h1M10 9h1M2 10h1M10 10h1M2 11h1M9 11h1M3 12h1M7 12h2M4 13h4" />
</svg>